<mxfile host="app.diagrams.net" modified="2022-05-25T11:41:19.195Z" agent="5.0 (Windows NT 10.0; Win64; x64) AppleWebKit/537.36 (KHTML, like Gecko) Chrome/101.0.4951.54 Safari/537.36" etag="KTZAMRnkWaM0BjUmo533" version="18.1.2" type="github">
  <diagram id="ZAjs7FVfvs6-8oTlMziy" name="Page-1">
    <mxGraphModel dx="1422" dy="762" grid="1" gridSize="10" guides="1" tooltips="1" connect="1" arrows="1" fold="1" page="1" pageScale="1" pageWidth="827" pageHeight="1169" math="0" shadow="0">
      <root>
        <mxCell id="0" />
        <mxCell id="1" parent="0" />
        <mxCell id="70aCbLGnN1WEeA6o_7AI-27" style="edgeStyle=orthogonalEdgeStyle;rounded=0;orthogonalLoop=1;jettySize=auto;html=1;entryX=0;entryY=0.5;entryDx=0;entryDy=0;fontColor=#000000;" parent="1" source="70aCbLGnN1WEeA6o_7AI-1" target="70aCbLGnN1WEeA6o_7AI-2" edge="1">
          <mxGeometry relative="1" as="geometry" />
        </mxCell>
        <mxCell id="70aCbLGnN1WEeA6o_7AI-28" style="edgeStyle=orthogonalEdgeStyle;rounded=0;orthogonalLoop=1;jettySize=auto;html=1;entryX=0;entryY=0.5;entryDx=0;entryDy=0;fontColor=#000000;" parent="1" source="70aCbLGnN1WEeA6o_7AI-1" target="70aCbLGnN1WEeA6o_7AI-3" edge="1">
          <mxGeometry relative="1" as="geometry" />
        </mxCell>
        <mxCell id="70aCbLGnN1WEeA6o_7AI-29" style="edgeStyle=orthogonalEdgeStyle;rounded=0;orthogonalLoop=1;jettySize=auto;html=1;entryX=0;entryY=0.5;entryDx=0;entryDy=0;fontColor=#000000;" parent="1" source="70aCbLGnN1WEeA6o_7AI-1" target="70aCbLGnN1WEeA6o_7AI-4" edge="1">
          <mxGeometry relative="1" as="geometry" />
        </mxCell>
        <mxCell id="70aCbLGnN1WEeA6o_7AI-30" style="edgeStyle=orthogonalEdgeStyle;rounded=0;orthogonalLoop=1;jettySize=auto;html=1;entryX=0;entryY=0.5;entryDx=0;entryDy=0;fontColor=#000000;" parent="1" source="70aCbLGnN1WEeA6o_7AI-1" target="70aCbLGnN1WEeA6o_7AI-5" edge="1">
          <mxGeometry relative="1" as="geometry" />
        </mxCell>
        <mxCell id="543spEc7KI62cCDAATcb-2" style="edgeStyle=orthogonalEdgeStyle;rounded=0;orthogonalLoop=1;jettySize=auto;html=1;entryX=0;entryY=0.5;entryDx=0;entryDy=0;fontColor=#000000;" edge="1" parent="1" source="70aCbLGnN1WEeA6o_7AI-1" target="543spEc7KI62cCDAATcb-1">
          <mxGeometry relative="1" as="geometry" />
        </mxCell>
        <mxCell id="70aCbLGnN1WEeA6o_7AI-1" value="保存套餐情形&lt;br&gt;&lt;span style=&quot;font-family: &amp;quot;JetBrains Mono&amp;quot;, monospace; font-size: 9.8pt; background-color: rgb(255, 255, 255);&quot;&gt;save-combo-flow-component&lt;/span&gt;" style="rounded=0;whiteSpace=wrap;html=1;" parent="1" vertex="1">
          <mxGeometry x="20" y="290" width="120" height="60" as="geometry" />
        </mxCell>
        <mxCell id="70aCbLGnN1WEeA6o_7AI-2" value="查主题信息表" style="rounded=0;whiteSpace=wrap;html=1;labelBackgroundColor=#FFFFFF;fontColor=#000000;" parent="1" vertex="1">
          <mxGeometry x="190" y="290" width="120" height="60" as="geometry" />
        </mxCell>
        <mxCell id="70aCbLGnN1WEeA6o_7AI-3" value="保存情形结果" style="rounded=0;whiteSpace=wrap;html=1;labelBackgroundColor=#FFFFFF;fontColor=#000000;" parent="1" vertex="1">
          <mxGeometry x="190" y="370" width="120" height="60" as="geometry" />
        </mxCell>
        <mxCell id="70aCbLGnN1WEeA6o_7AI-4" value="保存办件材料" style="rounded=0;whiteSpace=wrap;html=1;labelBackgroundColor=#FFFFFF;fontColor=#000000;" parent="1" vertex="1">
          <mxGeometry x="190" y="450" width="120" height="60" as="geometry" />
        </mxCell>
        <mxCell id="70aCbLGnN1WEeA6o_7AI-5" value="保存办件事项阶段" style="rounded=0;whiteSpace=wrap;html=1;labelBackgroundColor=#FFFFFF;fontColor=#000000;" parent="1" vertex="1">
          <mxGeometry x="190" y="520" width="120" height="60" as="geometry" />
        </mxCell>
        <mxCell id="70aCbLGnN1WEeA6o_7AI-31" style="edgeStyle=orthogonalEdgeStyle;rounded=0;orthogonalLoop=1;jettySize=auto;html=1;entryX=0;entryY=0.5;entryDx=0;entryDy=0;fontColor=#000000;" parent="1" source="70aCbLGnN1WEeA6o_7AI-6" target="70aCbLGnN1WEeA6o_7AI-7" edge="1">
          <mxGeometry relative="1" as="geometry" />
        </mxCell>
        <mxCell id="70aCbLGnN1WEeA6o_7AI-32" style="edgeStyle=orthogonalEdgeStyle;rounded=0;orthogonalLoop=1;jettySize=auto;html=1;entryX=0;entryY=0.5;entryDx=0;entryDy=0;fontColor=#000000;" parent="1" source="70aCbLGnN1WEeA6o_7AI-6" target="70aCbLGnN1WEeA6o_7AI-8" edge="1">
          <mxGeometry relative="1" as="geometry" />
        </mxCell>
        <mxCell id="70aCbLGnN1WEeA6o_7AI-33" style="edgeStyle=orthogonalEdgeStyle;rounded=0;orthogonalLoop=1;jettySize=auto;html=1;entryX=0;entryY=0.5;entryDx=0;entryDy=0;fontColor=#000000;" parent="1" source="70aCbLGnN1WEeA6o_7AI-6" target="70aCbLGnN1WEeA6o_7AI-9" edge="1">
          <mxGeometry relative="1" as="geometry" />
        </mxCell>
        <mxCell id="70aCbLGnN1WEeA6o_7AI-6" value="保存表单信息" style="rounded=0;whiteSpace=wrap;html=1;labelBackgroundColor=#FFFFFF;fontColor=#000000;" parent="1" vertex="1">
          <mxGeometry x="20" y="650" width="120" height="60" as="geometry" />
        </mxCell>
        <mxCell id="70aCbLGnN1WEeA6o_7AI-7" value="合并表单json" style="rounded=0;whiteSpace=wrap;html=1;labelBackgroundColor=#FFFFFF;fontColor=#000000;" parent="1" vertex="1">
          <mxGeometry x="190" y="670" width="120" height="60" as="geometry" />
        </mxCell>
        <mxCell id="70aCbLGnN1WEeA6o_7AI-8" value="保存单事项表单json" style="rounded=0;whiteSpace=wrap;html=1;labelBackgroundColor=#FFFFFF;fontColor=#000000;" parent="1" vertex="1">
          <mxGeometry x="190" y="740" width="120" height="60" as="geometry" />
        </mxCell>
        <mxCell id="70aCbLGnN1WEeA6o_7AI-9" value="json渲染材料模板，生成材料上传" style="rounded=0;whiteSpace=wrap;html=1;labelBackgroundColor=#FFFFFF;fontColor=#000000;" parent="1" vertex="1">
          <mxGeometry x="190" y="810" width="120" height="60" as="geometry" />
        </mxCell>
        <mxCell id="70aCbLGnN1WEeA6o_7AI-34" style="edgeStyle=orthogonalEdgeStyle;rounded=0;orthogonalLoop=1;jettySize=auto;html=1;entryX=0;entryY=0.5;entryDx=0;entryDy=0;fontColor=#000000;" parent="1" source="70aCbLGnN1WEeA6o_7AI-10" target="70aCbLGnN1WEeA6o_7AI-11" edge="1">
          <mxGeometry relative="1" as="geometry" />
        </mxCell>
        <mxCell id="70aCbLGnN1WEeA6o_7AI-35" style="edgeStyle=orthogonalEdgeStyle;rounded=0;orthogonalLoop=1;jettySize=auto;html=1;entryX=0;entryY=0.5;entryDx=0;entryDy=0;fontColor=#000000;" parent="1" source="70aCbLGnN1WEeA6o_7AI-10" target="70aCbLGnN1WEeA6o_7AI-12" edge="1">
          <mxGeometry relative="1" as="geometry" />
        </mxCell>
        <mxCell id="70aCbLGnN1WEeA6o_7AI-36" style="edgeStyle=orthogonalEdgeStyle;rounded=0;orthogonalLoop=1;jettySize=auto;html=1;entryX=0;entryY=0.5;entryDx=0;entryDy=0;fontColor=#000000;" parent="1" source="70aCbLGnN1WEeA6o_7AI-10" target="70aCbLGnN1WEeA6o_7AI-13" edge="1">
          <mxGeometry relative="1" as="geometry" />
        </mxCell>
        <mxCell id="70aCbLGnN1WEeA6o_7AI-37" style="edgeStyle=orthogonalEdgeStyle;rounded=0;orthogonalLoop=1;jettySize=auto;html=1;entryX=0;entryY=0.5;entryDx=0;entryDy=0;fontColor=#000000;" parent="1" source="70aCbLGnN1WEeA6o_7AI-10" target="70aCbLGnN1WEeA6o_7AI-14" edge="1">
          <mxGeometry relative="1" as="geometry" />
        </mxCell>
        <mxCell id="70aCbLGnN1WEeA6o_7AI-38" style="edgeStyle=orthogonalEdgeStyle;rounded=0;orthogonalLoop=1;jettySize=auto;html=1;entryX=0;entryY=0.5;entryDx=0;entryDy=0;fontColor=#000000;" parent="1" source="70aCbLGnN1WEeA6o_7AI-10" target="70aCbLGnN1WEeA6o_7AI-15" edge="1">
          <mxGeometry relative="1" as="geometry" />
        </mxCell>
        <mxCell id="70aCbLGnN1WEeA6o_7AI-39" style="edgeStyle=orthogonalEdgeStyle;rounded=0;orthogonalLoop=1;jettySize=auto;html=1;entryX=0;entryY=0.5;entryDx=0;entryDy=0;fontColor=#000000;" parent="1" source="70aCbLGnN1WEeA6o_7AI-10" target="70aCbLGnN1WEeA6o_7AI-16" edge="1">
          <mxGeometry relative="1" as="geometry" />
        </mxCell>
        <mxCell id="70aCbLGnN1WEeA6o_7AI-40" style="edgeStyle=orthogonalEdgeStyle;rounded=0;orthogonalLoop=1;jettySize=auto;html=1;entryX=0;entryY=0.5;entryDx=0;entryDy=0;fontColor=#000000;" parent="1" source="70aCbLGnN1WEeA6o_7AI-10" target="70aCbLGnN1WEeA6o_7AI-17" edge="1">
          <mxGeometry relative="1" as="geometry" />
        </mxCell>
        <mxCell id="70aCbLGnN1WEeA6o_7AI-10" value="保存材料" style="rounded=0;whiteSpace=wrap;html=1;labelBackgroundColor=#FFFFFF;fontColor=#000000;" parent="1" vertex="1">
          <mxGeometry x="20" y="910" width="120" height="60" as="geometry" />
        </mxCell>
        <mxCell id="70aCbLGnN1WEeA6o_7AI-11" value="保存材料" style="rounded=0;whiteSpace=wrap;html=1;labelBackgroundColor=#FFFFFF;fontColor=#000000;" parent="1" vertex="1">
          <mxGeometry x="190" y="910" width="120" height="60" as="geometry" />
        </mxCell>
        <mxCell id="70aCbLGnN1WEeA6o_7AI-12" value="更新办件状态" style="rounded=0;whiteSpace=wrap;html=1;labelBackgroundColor=#FFFFFF;fontColor=#000000;" parent="1" vertex="1">
          <mxGeometry x="190" y="1000" width="120" height="60" as="geometry" />
        </mxCell>
        <mxCell id="70aCbLGnN1WEeA6o_7AI-13" value="&lt;pre style=&quot;font-family: 宋体, monospace; font-size: 9.8pt;&quot;&gt;&lt;span style=&quot;background-color: rgb(255, 255, 255);&quot;&gt;判断办件是否融缺&lt;/span&gt;&lt;/pre&gt;" style="rounded=0;whiteSpace=wrap;html=1;labelBackgroundColor=#FFFFFF;fontColor=#000000;" parent="1" vertex="1">
          <mxGeometry x="190" y="1080" width="120" height="60" as="geometry" />
        </mxCell>
        <mxCell id="70aCbLGnN1WEeA6o_7AI-14" value="记录日志" style="rounded=0;whiteSpace=wrap;html=1;labelBackgroundColor=#FFFFFF;fontColor=#000000;" parent="1" vertex="1">
          <mxGeometry x="190" y="1169" width="120" height="60" as="geometry" />
        </mxCell>
        <mxCell id="70aCbLGnN1WEeA6o_7AI-15" value="生成收件通知书" style="rounded=0;whiteSpace=wrap;html=1;labelBackgroundColor=#FFFFFF;fontColor=#000000;" parent="1" vertex="1">
          <mxGeometry x="190" y="1250" width="120" height="60" as="geometry" />
        </mxCell>
        <mxCell id="70aCbLGnN1WEeA6o_7AI-16" value="打包办件材料" style="rounded=0;whiteSpace=wrap;html=1;labelBackgroundColor=#FFFFFF;fontColor=#000000;" parent="1" vertex="1">
          <mxGeometry x="190" y="1330" width="120" height="60" as="geometry" />
        </mxCell>
        <mxCell id="70aCbLGnN1WEeA6o_7AI-41" style="edgeStyle=orthogonalEdgeStyle;rounded=0;orthogonalLoop=1;jettySize=auto;html=1;entryX=0;entryY=0.5;entryDx=0;entryDy=0;fontColor=#000000;" parent="1" source="70aCbLGnN1WEeA6o_7AI-17" target="70aCbLGnN1WEeA6o_7AI-18" edge="1">
          <mxGeometry relative="1" as="geometry" />
        </mxCell>
        <mxCell id="70aCbLGnN1WEeA6o_7AI-42" style="edgeStyle=orthogonalEdgeStyle;rounded=0;orthogonalLoop=1;jettySize=auto;html=1;entryX=0;entryY=0.5;entryDx=0;entryDy=0;fontColor=#000000;" parent="1" source="70aCbLGnN1WEeA6o_7AI-17" target="70aCbLGnN1WEeA6o_7AI-21" edge="1">
          <mxGeometry relative="1" as="geometry" />
        </mxCell>
        <mxCell id="70aCbLGnN1WEeA6o_7AI-49" style="edgeStyle=orthogonalEdgeStyle;rounded=0;orthogonalLoop=1;jettySize=auto;html=1;entryX=0;entryY=0.5;entryDx=0;entryDy=0;fontColor=#000000;" parent="1" source="70aCbLGnN1WEeA6o_7AI-17" target="70aCbLGnN1WEeA6o_7AI-26" edge="1">
          <mxGeometry relative="1" as="geometry" />
        </mxCell>
        <mxCell id="70aCbLGnN1WEeA6o_7AI-17" value="办件分发" style="rounded=0;whiteSpace=wrap;html=1;labelBackgroundColor=#FFFFFF;fontColor=#000000;" parent="1" vertex="1">
          <mxGeometry x="190" y="1420" width="120" height="60" as="geometry" />
        </mxCell>
        <mxCell id="70aCbLGnN1WEeA6o_7AI-43" style="edgeStyle=orthogonalEdgeStyle;rounded=0;orthogonalLoop=1;jettySize=auto;html=1;fontColor=#000000;" parent="1" source="70aCbLGnN1WEeA6o_7AI-18" edge="1">
          <mxGeometry relative="1" as="geometry">
            <mxPoint x="580" y="1450" as="targetPoint" />
          </mxGeometry>
        </mxCell>
        <mxCell id="70aCbLGnN1WEeA6o_7AI-44" style="edgeStyle=orthogonalEdgeStyle;rounded=0;orthogonalLoop=1;jettySize=auto;html=1;entryX=0;entryY=0.5;entryDx=0;entryDy=0;fontColor=#000000;" parent="1" source="70aCbLGnN1WEeA6o_7AI-18" target="70aCbLGnN1WEeA6o_7AI-20" edge="1">
          <mxGeometry relative="1" as="geometry" />
        </mxCell>
        <mxCell id="70aCbLGnN1WEeA6o_7AI-18" value="材料上传省库" style="rounded=0;whiteSpace=wrap;html=1;labelBackgroundColor=#FFFFFF;fontColor=#000000;" parent="1" vertex="1">
          <mxGeometry x="400" y="1420" width="120" height="60" as="geometry" />
        </mxCell>
        <mxCell id="70aCbLGnN1WEeA6o_7AI-19" value="上传结果回填办件材料" style="rounded=0;whiteSpace=wrap;html=1;labelBackgroundColor=#FFFFFF;fontColor=#000000;" parent="1" vertex="1">
          <mxGeometry x="590" y="1420" width="120" height="60" as="geometry" />
        </mxCell>
        <mxCell id="70aCbLGnN1WEeA6o_7AI-20" value="更新办件材料" style="rounded=0;whiteSpace=wrap;html=1;labelBackgroundColor=#FFFFFF;fontColor=#000000;" parent="1" vertex="1">
          <mxGeometry x="590" y="1510" width="120" height="60" as="geometry" />
        </mxCell>
        <mxCell id="70aCbLGnN1WEeA6o_7AI-45" style="edgeStyle=orthogonalEdgeStyle;rounded=0;orthogonalLoop=1;jettySize=auto;html=1;entryX=0;entryY=0.5;entryDx=0;entryDy=0;fontColor=#000000;" parent="1" source="70aCbLGnN1WEeA6o_7AI-21" target="70aCbLGnN1WEeA6o_7AI-22" edge="1">
          <mxGeometry relative="1" as="geometry" />
        </mxCell>
        <mxCell id="70aCbLGnN1WEeA6o_7AI-21" value="分发办件" style="rounded=0;whiteSpace=wrap;html=1;labelBackgroundColor=#FFFFFF;fontColor=#000000;" parent="1" vertex="1">
          <mxGeometry x="400" y="1630" width="120" height="60" as="geometry" />
        </mxCell>
        <mxCell id="70aCbLGnN1WEeA6o_7AI-46" style="edgeStyle=orthogonalEdgeStyle;rounded=0;orthogonalLoop=1;jettySize=auto;html=1;entryX=0;entryY=0.5;entryDx=0;entryDy=0;fontColor=#000000;" parent="1" source="70aCbLGnN1WEeA6o_7AI-22" target="70aCbLGnN1WEeA6o_7AI-23" edge="1">
          <mxGeometry relative="1" as="geometry" />
        </mxCell>
        <mxCell id="70aCbLGnN1WEeA6o_7AI-47" style="edgeStyle=orthogonalEdgeStyle;rounded=0;orthogonalLoop=1;jettySize=auto;html=1;entryX=0;entryY=0.5;entryDx=0;entryDy=0;fontColor=#000000;" parent="1" source="70aCbLGnN1WEeA6o_7AI-22" target="70aCbLGnN1WEeA6o_7AI-24" edge="1">
          <mxGeometry relative="1" as="geometry" />
        </mxCell>
        <mxCell id="70aCbLGnN1WEeA6o_7AI-48" style="edgeStyle=orthogonalEdgeStyle;rounded=0;orthogonalLoop=1;jettySize=auto;html=1;entryX=0;entryY=0.5;entryDx=0;entryDy=0;fontColor=#000000;" parent="1" source="70aCbLGnN1WEeA6o_7AI-22" target="70aCbLGnN1WEeA6o_7AI-25" edge="1">
          <mxGeometry relative="1" as="geometry" />
        </mxCell>
        <mxCell id="70aCbLGnN1WEeA6o_7AI-22" value="组装办件信息" style="rounded=0;whiteSpace=wrap;html=1;labelBackgroundColor=#FFFFFF;fontColor=#000000;" parent="1" vertex="1">
          <mxGeometry x="590" y="1630" width="120" height="60" as="geometry" />
        </mxCell>
        <mxCell id="70aCbLGnN1WEeA6o_7AI-23" value="组装单事项信息" style="rounded=0;whiteSpace=wrap;html=1;labelBackgroundColor=#FFFFFF;fontColor=#000000;" parent="1" vertex="1">
          <mxGeometry x="770" y="1630" width="120" height="60" as="geometry" />
        </mxCell>
        <mxCell id="70aCbLGnN1WEeA6o_7AI-24" value="组装单事项材料信息" style="rounded=0;whiteSpace=wrap;html=1;labelBackgroundColor=#FFFFFF;fontColor=#000000;" parent="1" vertex="1">
          <mxGeometry x="770" y="1710" width="120" height="60" as="geometry" />
        </mxCell>
        <mxCell id="70aCbLGnN1WEeA6o_7AI-25" value="组装单事项表单信息" style="rounded=0;whiteSpace=wrap;html=1;labelBackgroundColor=#FFFFFF;fontColor=#000000;" parent="1" vertex="1">
          <mxGeometry x="770" y="1790" width="120" height="60" as="geometry" />
        </mxCell>
        <mxCell id="70aCbLGnN1WEeA6o_7AI-26" value="修改办件阶段分发状态" style="rounded=0;whiteSpace=wrap;html=1;labelBackgroundColor=#FFFFFF;fontColor=#000000;" parent="1" vertex="1">
          <mxGeometry x="400" y="1890" width="120" height="60" as="geometry" />
        </mxCell>
        <mxCell id="543spEc7KI62cCDAATcb-1" value="生成办事指南" style="rounded=0;whiteSpace=wrap;html=1;labelBackgroundColor=#FFFFFF;fontColor=#000000;" vertex="1" parent="1">
          <mxGeometry x="190" y="585" width="120" height="60" as="geometry" />
        </mxCell>
      </root>
    </mxGraphModel>
  </diagram>
</mxfile>
